<svg width="9" height="15" viewBox="0 0 9 15" fill="none" xmlns="http://www.w3.org/2000/svg">
<path d="M2.77187 15V8.29102H0.375V5.625H2.77187V3.52441C2.77187 1.24219 4.25938 0 6.43125 0C7.47188 0 8.36562 0.0732422 8.625 0.105469V2.49023H7.11875C5.9375 2.49023 5.70937 3.01758 5.70937 3.78809V5.625H8.375L8.00938 8.29102H5.70937V15" fill="#181818"/>
<mask id="mask0" mask-type="alpha" maskUnits="userSpaceOnUse" x="0" y="0" width="9" height="15">
<path d="M2.77187 15V8.29102H0.375V5.625H2.77187V3.52441C2.77187 1.24219 4.25938 0 6.43125 0C7.47188 0 8.36562 0.0732422 8.625 0.105469V2.49023H7.11875C5.9375 2.49023 5.70937 3.01758 5.70937 3.78809V5.625H8.375L8.00938 8.29102H5.70937V15" fill="white"/>
</mask>
<g mask="url(#mask0)">
</g>
</svg>
