<svg width="15" height="15" viewBox="0 0 15 15" fill="none" xmlns="http://www.w3.org/2000/svg">
<path d="M7.49938 9.00144C8.32684 9.00144 9.00144 8.32805 9.00144 7.49999C9.00144 7.17311 8.89449 6.87131 8.71746 6.62479C8.44466 6.24656 8.00117 5.99854 7.50029 5.99854C6.9991 5.99854 6.55592 6.24626 6.28251 6.62449C6.10488 6.87101 5.99884 7.17281 5.99854 7.49968C5.99763 8.32775 6.67162 9.00144 7.49938 9.00144Z" fill="#181818"/>
<path d="M10.7787 5.66327V4.40471V4.21741L10.5905 4.21801L9.33252 4.22194L9.33735 5.6681L10.7787 5.66327Z" fill="#181818"/>
<path d="M7.5 0C3.36452 0 0 3.36452 0 7.5C0 11.6352 3.36452 15 7.5 15C11.6352 15 15 11.6352 15 7.5C15 3.36452 11.6358 0 7.5 0ZM11.7654 6.62481V10.1171C11.7654 11.0267 11.0258 11.766 10.1168 11.766H4.88319C3.97386 11.766 3.23461 11.0267 3.23461 10.1171V6.62481V4.88349C3.23461 3.97416 3.97386 3.23492 4.88319 3.23492H10.1165C11.0258 3.23492 11.7654 3.97416 11.7654 4.88349V6.62481Z" fill="#181818"/>
<path d="M9.83317 7.50007C9.83317 8.78612 8.78669 9.83321 7.50003 9.83321C6.21338 9.83321 5.1672 8.78612 5.1672 7.50007C5.1672 7.19072 5.22883 6.89496 5.33879 6.62488H4.06543V10.1172C4.06543 10.5685 4.43188 10.9341 4.88292 10.9341H10.1162C10.5667 10.9341 10.9337 10.5685 10.9337 10.1172V6.62488H9.65977C9.77064 6.89496 9.83317 7.19072 9.83317 7.50007Z" fill="#181818"/>
</svg>
