<svg width="16" height="16" viewBox="0 0 16 16" fill="none" xmlns="http://www.w3.org/2000/svg">
<path fill-rule="evenodd" clip-rule="evenodd" d="M10.925 14.3879L14.388 10.9249C15.168 10.1459 15.168 8.87686 14.388 8.09686L7.90298 1.61186C7.12298 0.831855 5.85498 0.831855 5.07498 1.61186L1.61198 5.07486C0.831978 5.85386 0.831978 7.12286 1.61198 7.90286L8.09698 14.3879C8.87698 15.1679 10.145 15.1679 10.925 14.3879ZM9.511 12.9739L3.026 6.48888L6.489 3.02588L12.975 9.50988L9.511 12.9739Z" fill="#181818"/>
<path d="M6 16H5C2.243 16 0 13.757 0 11V10H2V11C2 12.654 3.346 14 5 14H6V16Z" fill="#181818"/>
<path d="M10 0H11C13.757 0 16 2.243 16 5V6H14V5C14 3.346 12.654 2 11 2H10V0Z" fill="#181818"/>
</svg>
