<svg width="14" height="17" viewBox="0 0 14 17" fill="none" xmlns="http://www.w3.org/2000/svg">
<path d="M7 9C8.10457 9 9 8.10457 9 7C9 5.89543 8.10457 5 7 5C5.89543 5 5 5.89543 5 7C5 8.10457 5.89543 9 7 9Z" fill="#181818"/>
<path fill-rule="evenodd" clip-rule="evenodd" d="M5.59106 15.0688C5.99516 15.427 6.27478 15.6748 6.3 15.7C6.7 16.1 7.3 16.1 7.7 15.8C7.75 15.75 8.77502 14.825 9.80003 13.9C10.825 12.975 11.85 12.05 11.9 12C13.3 10.7 14 8.9 14 7C14 3.1 10.9 0 7 0C3.1 0 0 3.1 0 7C0 8.9 0.7 10.7 2.1 11.9C2.1 11.9748 4.3928 14.0068 5.59106 15.0688ZM7 13.7001L3.6 10.7001C2.6 9.7001 2 8.4001 2 7.0001C2 4.2001 4.2 2.1001 7 2.1001C9.8 2.1001 12 4.3001 12 7.1001C12 8.5001 11.4 9.7001 10.4 10.7001L7 13.7001Z" fill="#181818"/>
</svg>
