<svg width="15" height="13" viewBox="0 0 15 13" fill="none" xmlns="http://www.w3.org/2000/svg">
<path d="M13.4581 3.09568C13.4676 3.23154 13.4676 3.36742 13.4676 3.50328C13.4676 7.64703 10.3744 12.4216 4.72081 12.4216C2.97905 12.4216 1.36104 11.9072 0 11.0145C0.247471 11.0436 0.485391 11.0533 0.742383 11.0533C2.17954 11.0533 3.50253 10.5584 4.559 9.7141C3.20748 9.68497 2.07486 8.78247 1.68463 7.5403C1.875 7.56939 2.06534 7.58881 2.26523 7.58881C2.54124 7.58881 2.81728 7.54998 3.07424 7.48208C1.66562 7.19092 0.609111 5.92937 0.609111 4.40578V4.36698C1.01836 4.59988 1.49429 4.74545 1.99869 4.76483C1.17064 4.20197 0.628154 3.24125 0.628154 2.15435C0.628154 1.5721 0.78041 1.03836 1.04692 0.572544C2.56025 2.4746 4.83501 3.71674 7.38574 3.85262C7.33816 3.61972 7.3096 3.37713 7.3096 3.13452C7.3096 1.40712 8.68017 0 10.3838 0C11.269 0 12.0685 0.37847 12.63 0.989846C13.3248 0.853991 13.991 0.59196 14.5812 0.232907C14.3527 0.960751 13.8673 1.57213 13.2296 1.96028C13.8483 1.89238 14.4479 1.71766 14.9999 1.47508C14.5812 2.09613 14.0577 2.64926 13.4581 3.09568Z" fill="black"/>
</svg>
