<svg width="18" height="10" viewBox="0 0 18 10" fill="none" xmlns="http://www.w3.org/2000/svg">
<path fill-rule="evenodd" clip-rule="evenodd" d="M15.2082 6.35846C15.7943 6.93074 16.413 7.46917 16.9387 8.09917C17.1709 8.37912 17.3908 8.66802 17.559 8.99292C17.7973 9.45477 17.5815 9.96302 17.1673 9.9906L14.593 9.98944C13.9291 10.0445 13.3994 9.77723 12.954 9.32327C12.5976 8.96023 12.2675 8.57385 11.9248 8.19856C11.7843 8.04517 11.6373 7.90084 11.4616 7.78675C11.1101 7.55864 10.8051 7.62849 10.6043 7.99501C10.3997 8.3678 10.3534 8.7806 10.3333 9.19607C10.3057 9.80226 10.1225 9.96163 9.51354 9.98938C8.21221 10.0507 6.97719 9.85387 5.8299 9.1974C4.8184 8.61867 4.03403 7.80167 3.35132 6.87674C2.02207 5.07571 1.00413 3.09667 0.089243 1.06218C-0.116691 0.603809 0.0339132 0.357757 0.539661 0.349048C1.37948 0.332734 2.21918 0.333895 3.05998 0.347887C3.40131 0.35288 3.62727 0.548653 3.75907 0.87111C4.21343 1.98833 4.7694 3.05127 5.46726 4.03652C5.65311 4.29883 5.84261 4.56114 6.11247 4.74576C6.41101 4.95019 6.6383 4.88243 6.77875 4.54987C6.86787 4.33901 6.90688 4.11188 6.92697 3.88603C6.99351 3.10903 7.00227 2.33337 6.88558 1.5591C6.81393 1.07588 6.54175 0.763063 6.05958 0.671621C5.81352 0.625 5.85016 0.533442 5.9693 0.392999C6.17622 0.150778 6.37083 0 6.75878 0H9.66815C10.1262 0.0903971 10.2279 0.296157 10.2906 0.757025L10.2931 3.98874C10.2881 4.16715 10.3822 4.69659 10.7036 4.81468C10.9608 4.89875 11.1303 4.69299 11.2846 4.5299C11.9812 3.79058 12.4784 2.91686 12.9225 2.01213C13.1196 1.61432 13.2891 1.20117 13.4533 0.788377C13.575 0.48206 13.766 0.33134 14.111 0.338017L16.9111 0.340513C16.9941 0.340513 17.0782 0.341733 17.1586 0.355493C17.6304 0.435904 17.7597 0.638876 17.614 1.09963C17.3844 1.82252 16.9376 2.42493 16.5008 3.03013C16.0338 3.67627 15.5344 4.30028 15.0713 4.95025C14.6459 5.54378 14.6796 5.84295 15.2082 6.35846Z" fill="#181818"/>
</svg>
