<svg width="16" height="16" viewBox="0 0 16 16" fill="none" xmlns="http://www.w3.org/2000/svg">
<g clip-path="url(#clip0)">
<path d="M15.9954 6.92131C15.9666 6.54668 15.7937 6.20581 15.5085 5.96143L14.1246 4.77518V1.40433C14.1246 1.14545 13.9147 0.935608 13.6558 0.935608H11.7809C11.522 0.935608 11.3184 1.14548 11.3184 1.40433V2.36458L8.9462 0.342856C8.41588 -0.111488 7.6461 -0.111426 7.11747 0.341513L0.491117 5.96137C-0.0949152 6.46349 -0.170947 7.34959 0.339054 7.9449C0.727774 8.39694 1.35043 8.54106 1.88125 8.3545V15.529C1.88125 15.7879 2.08487 15.9977 2.34371 15.9977H13.6558C13.9147 15.9977 14.1245 15.7879 14.1245 15.529V8.35459C14.6725 8.54834 15.282 8.38597 15.661 7.94428C15.9054 7.65903 16.0241 7.29571 15.9954 6.92131ZM12.2496 1.87305H13.1933V3.97161L12.2496 3.16808V1.87305ZM9.9122 15.0603H6.0936V11.3042H9.9122V15.0603ZM13.1933 15.0603H10.8434V10.8417C10.8434 10.5828 10.6335 10.373 10.3747 10.373H5.62485C5.36597 10.373 5.16238 10.5828 5.16238 10.8417V15.0603H2.81247V7.68031L8.02945 3.25489L13.1934 7.67593V15.0603H13.1933ZM14.9493 7.33403C14.7831 7.52771 14.4877 7.55612 14.2881 7.385L8.33604 2.28298C8.1612 2.13308 7.90338 2.13245 7.72779 2.28142C7.60094 2.38899 1.73649 7.36368 1.71168 7.38475C1.51537 7.55271 1.21849 7.52981 1.0504 7.33428C0.882118 7.13787 0.904868 6.84134 1.09943 6.67459L7.72582 1.0547C7.90269 0.903201 8.15938 0.90317 8.33613 1.05464L14.8985 6.67324C15.0946 6.84137 15.1174 7.13793 14.9493 7.33403Z" fill="#4479BC"/>
<path d="M8.49997 13.1855C8.75884 13.1855 8.96869 12.9756 8.96869 12.7168C8.96869 12.4579 8.75884 12.248 8.49997 12.248C8.2411 12.248 8.03125 12.4579 8.03125 12.7168C8.03125 12.9756 8.2411 13.1855 8.49997 13.1855Z" fill="#4479BC"/>
</g>
<defs>
<clipPath id="clip0">
<rect width="16" height="16" fill="white"/>
</clipPath>
</defs>
</svg>
