<svg width="22" height="22" viewBox="0 0 22 22" fill="none" xmlns="http://www.w3.org/2000/svg">
<path d="M7.19955 8.57529L6.46524 9.09963L6.9116 9.8838C8.14734 12.0548 9.94523 13.8527 12.1162 15.0884L12.9004 15.5348L13.4247 14.8004L14.5051 13.2874C14.5051 13.2874 14.5051 13.2873 14.5052 13.2873C14.5367 13.2431 14.5834 13.212 14.6364 13.1999C14.6894 13.1878 14.745 13.1955 14.7927 13.2216L14.7933 13.222C16.6456 14.2342 18.691 14.843 20.7953 15.0084C20.8511 15.0128 20.9031 15.0381 20.941 15.0792C20.9789 15.1202 21 15.1741 21 15.23V15.2301V20.6837V20.6839C21 20.7389 20.9796 20.792 20.9427 20.8328C20.9059 20.8737 20.8552 20.8994 20.8004 20.905L20.7992 20.9051C20.1867 20.9687 19.5685 21 18.9444 21C9.03451 21 1 12.9655 1 3.05556C1 2.43151 1.03132 1.81332 1.09488 1.20077L1.09501 1.19956C1.10062 1.14482 1.12634 1.09412 1.16718 1.05725C1.20803 1.02039 1.2611 0.999988 1.31612 1H1.31633H6.76989H6.77001C6.82592 0.999993 6.87977 1.02106 6.92083 1.05899C6.9619 1.09692 6.98715 1.14894 6.99157 1.20467C7.15697 3.30896 7.7658 5.35443 8.77804 7.20667L8.7784 7.20732C8.8045 7.255 8.81223 7.3106 8.8001 7.36358C8.78799 7.41656 8.75688 7.46326 8.71266 7.49484C8.71265 7.49485 8.71264 7.49486 8.71262 7.49487L7.19955 8.57529Z" stroke="#4479BC" stroke-width="2"/>
</svg>
