<svg width="4" height="9" viewBox="0 0 4 9" fill="none" xmlns="http://www.w3.org/2000/svg">
<path d="M2.02542 8.01827C1.63269 8.01827 1.43633 7.78918 1.43633 7.331C1.43633 7.20827 1.45678 7.03645 1.49769 6.81554L2.00087 4.26282C2.02542 4.14827 2.03769 4.05418 2.03769 3.98054C2.03769 3.87418 2.01723 3.79645 1.97633 3.74736C1.93542 3.69009 1.88223 3.66145 1.81678 3.66145C1.64496 3.66145 1.41178 3.82509 1.11723 4.15236C1.10905 4.16054 1.09678 4.16463 1.08042 4.16463C1.04769 4.16463 1.02314 4.15236 1.00678 4.12782C0.990416 4.09509 0.990416 4.06645 1.00678 4.04191C1.30133 3.69827 1.56723 3.44872 1.80451 3.29327C2.04178 3.13782 2.27496 3.06009 2.50405 3.06009C2.89678 3.06009 3.09314 3.27282 3.09314 3.69827C3.09314 3.83736 3.07678 3.97645 3.04405 4.11554L2.5286 6.81554C2.51223 6.88918 2.50405 6.98327 2.50405 7.09782C2.50405 7.29418 2.56542 7.39236 2.68814 7.39236C2.76996 7.39236 2.85996 7.35554 2.95814 7.28191C3.06451 7.20827 3.19133 7.10191 3.3386 6.96282C3.35496 6.94645 3.37133 6.93827 3.38769 6.93827C3.41223 6.93827 3.43269 6.95463 3.44905 6.98736C3.46542 7.01191 3.46133 7.03645 3.43678 7.061C3.1586 7.38827 2.90905 7.62963 2.68814 7.78509C2.47542 7.94054 2.25451 8.01827 2.02542 8.01827ZM2.84769 1.78373C2.63496 1.78373 2.46314 1.72236 2.33223 1.59963C2.20951 1.46872 2.14814 1.29282 2.14814 1.07191C2.14814 0.875543 2.20951 0.715998 2.33223 0.59327C2.46314 0.470543 2.63496 0.40918 2.84769 0.40918C3.06042 0.40918 3.22405 0.470543 3.3386 0.59327C3.46133 0.715998 3.52269 0.875543 3.52269 1.07191C3.52269 1.301 3.46133 1.47691 3.3386 1.59963C3.22405 1.72236 3.06042 1.78373 2.84769 1.78373Z" fill="white"/>
</svg>
