<svg width="20" height="20" viewBox="0 0 20 20" fill="none" xmlns="http://www.w3.org/2000/svg">
<path fill-rule="evenodd" clip-rule="evenodd" d="M14.8158 12.8969L20 18.0811L18.0811 20L12.8969 14.8158C9.4382 17.2767 4.67067 16.6765 1.92988 13.4351C-0.810911 10.1937 -0.61038 5.39272 2.39117 2.39117C5.39272 -0.61038 10.1937 -0.810911 13.4351 1.92988C16.6765 4.67067 17.2767 9.4382 14.8158 12.8969ZM8.18942 1.85815C4.69347 1.85815 1.85944 4.69217 1.85944 8.18811C1.86342 11.6824 4.69512 14.5141 8.18942 14.5181C11.6854 14.5181 14.5194 11.684 14.5194 8.18811C14.5194 4.69217 11.6854 1.85815 8.18942 1.85815Z" fill="white"/>
</svg>
