<svg width="16" height="16" viewBox="0 0 16 16" fill="none" xmlns="http://www.w3.org/2000/svg">
<g clip-path="url(#clip0)">
<path d="M15.3044 0H4.86971C4.58159 0 4.34796 0.233592 4.34796 0.521747V11.3043C4.34796 11.5924 4.58155 11.826 4.86971 11.826H15.3044C15.5926 11.826 15.8262 11.5924 15.8262 11.3043V0.521716C15.8262 0.233592 15.5926 0 15.3044 0ZM14.7827 4.17388H13.2175C12.9294 4.17388 12.6958 4.40747 12.6958 4.69563C12.6958 4.98378 12.9293 5.21738 13.2175 5.21738H14.7827V10.7826H8.17403V9.21735C8.17403 8.92923 7.94044 8.69561 7.65229 8.69561C7.36413 8.69561 7.13054 8.9292 7.13054 9.21735V10.7826H5.39142V1.04346H7.13054V6.78255C7.13054 7.07068 7.36413 7.3043 7.65229 7.3043C7.94044 7.3043 8.17403 7.07071 8.17403 6.78255V5.21734H10.7827C11.0708 5.21734 11.3045 4.98375 11.3045 4.6956C11.3045 4.40744 11.0709 4.17385 10.7827 4.17385H8.17403V1.04346H14.7827V4.17388H14.7827Z" fill="#4479BC"/>
<path d="M15.6733 14.0659L14.6299 13.0224C14.4262 12.8187 14.0959 12.8187 13.8921 13.0224C13.6884 13.2262 13.6884 13.5565 13.8921 13.7603L14.0449 13.9131H4.04239L4.1952 13.7603C4.39895 13.5566 4.39895 13.2262 4.19523 13.0225C3.99151 12.8187 3.66114 12.8187 3.45739 13.0225L2.41402 14.0659C2.20886 14.2708 2.2124 14.6025 2.41402 14.8039L3.45739 15.8473C3.66111 16.0511 3.99148 16.0511 4.19523 15.8473C4.39898 15.6436 4.39898 15.3132 4.19523 15.1095L4.04239 14.9566H14.0449L13.8921 15.1095C13.6883 15.3132 13.6883 15.6436 13.8921 15.8473C14.0958 16.0511 14.4262 16.0511 14.6299 15.8473L15.6733 14.8039C15.8768 14.6006 15.8763 14.2686 15.6733 14.0659Z" fill="#4479BC"/>
<path d="M2.41397 10.9354L2.26113 11.0882V1.78133L2.41397 1.93414C2.61769 2.13789 2.94806 2.13793 3.15181 1.93414C3.35556 1.73043 3.35559 1.40005 3.15181 1.19631L2.10832 0.152812C1.9046 -0.0509372 1.57423 -0.0509372 1.37048 0.152812L0.327018 1.19627C0.123269 1.39999 0.123238 1.73036 0.327018 1.93411C0.530735 2.13786 0.861108 2.13786 1.06486 1.93411L1.21767 1.7813V11.0882L1.06486 10.9353C0.86114 10.7316 0.530766 10.7316 0.327018 10.9353C0.123269 11.1391 0.123238 11.4694 0.327018 11.6732L1.37048 12.7166C1.5742 12.9204 1.90457 12.9204 2.10832 12.7166L3.15178 11.6732C3.35553 11.4695 3.35556 11.1391 3.15178 10.9353C2.9481 10.7317 2.61772 10.7317 2.41397 10.9354Z" fill="#4479BC"/>
</g>
<defs>
<clipPath id="clip0">
<rect width="16" height="16" fill="white"/>
</clipPath>
</defs>
</svg>
