<svg width="94" height="87" viewBox="0 0 94 87" fill="none" xmlns="http://www.w3.org/2000/svg">
<path d="M40.4726 3.83519V19.4565C40.4726 21.5751 38.7482 23.2917 36.6208 23.2917C29.0309 23.2917 24.9023 31.0444 24.3301 46.3458H36.6208C38.7482 46.3458 40.4726 48.064 40.4726 50.1818V83.1653C40.4726 85.2829 38.7482 86.9997 36.6208 86.9997H3.85098C1.72286 86.9997 0 85.2815 0 83.1653V50.1818C0 42.8466 0.741599 36.1154 2.20352 30.1728C3.70288 24.0796 6.00442 18.752 9.04218 14.3375C12.168 9.80078 16.0779 6.24074 20.6643 3.76064C25.2817 1.26553 30.6512 0 36.6222 0C38.7482 0 40.4726 1.7166 40.4726 3.83519ZM90.1479 23.2919C92.2742 23.2919 94 21.5737 94 19.4568V3.83546C94 1.71687 92.2745 0.000268029 90.1479 0.000268029C84.1793 0.000268029 78.8091 1.26606 74.1933 3.76091C69.6061 6.24101 65.694 9.80105 62.5677 14.3378C59.531 18.7523 57.2294 24.0801 55.7298 30.1747C54.2687 36.1191 53.5271 42.8503 53.5271 50.182V83.1656C53.5271 85.2831 55.2521 87 57.3789 87H90.1477C92.2739 87 93.9981 85.2818 93.9981 83.1656V50.1818C93.9981 48.0642 92.2742 46.3458 90.1477 46.3458H78.0322C78.5958 31.0447 82.6641 23.2919 90.1479 23.2919Z" fill="#4479BC" fill-opacity="0.2"/>
</svg>
